<svg width="22" height="23" viewBox="0 0 22 23" fill="none" xmlns="http://www.w3.org/2000/svg">
<path fill-rule="evenodd" clip-rule="evenodd" d="M12.2885 14.9285C13.5426 14.9285 14.5635 15.942 14.5635 17.1878V20.392C14.5635 20.6597 14.778 20.8743 15.053 20.8806H17.0385C18.603 20.8806 19.8749 19.6243 19.8749 18.0806V8.99305C19.8676 8.4618 19.6145 7.9618 19.1801 7.62951L12.3124 2.15243C11.3905 1.42222 10.101 1.42222 9.17596 2.15451L2.35513 7.62743C1.90409 7.97013 1.65096 8.47013 1.64575 9.01076V18.0806C1.64575 19.6243 2.91763 20.8806 4.48221 20.8806H6.48638C6.76867 20.8806 6.99784 20.6566 6.99784 20.3816C6.99784 20.3212 7.00513 20.2608 7.01763 20.2035V17.1878C7.01763 15.9493 8.03221 14.9368 9.277 14.9285H12.2885ZM17.0385 22.4431H15.0343C13.8864 22.416 13.001 21.5149 13.001 20.392V17.1878C13.001 16.8035 12.6812 16.491 12.2885 16.491H9.28221C8.89784 16.493 8.58013 16.8066 8.58013 17.1878V20.3816C8.58013 20.4597 8.56971 20.5347 8.54784 20.6056C8.43534 21.6368 7.55408 22.4431 6.48638 22.4431H4.48221C2.05617 22.4431 0.083252 20.4858 0.083252 18.0806V9.00347C0.0936686 7.96805 0.570752 7.02013 1.39471 6.39617L8.202 0.932634C9.70096 -0.254866 11.7895 -0.254866 13.2853 0.93055L20.1416 6.3993C20.9468 7.01284 21.4239 7.95868 21.4374 8.98159V18.0806C21.4374 20.4858 19.4645 22.4431 17.0385 22.4431Z" fill="black"/>
</svg>
